{
.appVersion = "3151";
.formatVersion = 3;
.storedFormatVersion = 1;
DisplayStrings = (
"videospan\012videospan"
);
axes = (
{
name = Weight;
tag = wght;
}
);
date = "2021-08-11 14:50:01 +0000";
familyName = Antique;
fontMaster = (
{
axesValues = (
100
);
guides = (
{
angle = -79.5085;
pos = (136,-28);
},
{
angle = 197.9044;
pos = (563,612);
}
);
iconName = SemiLight;
id = "D8D2F0D2-8948-448B-99CD-378CDFD0E0AE";
metricValues = (
{
pos = 740;
},
{
pos = 740;
},
{
pos = 500;
},
{
},
{
pos = -200;
},
{
}
);
name = Thin;
userData = {
GSCornerRadius = 15;
};
},
{
axesValues = (
1000
);
iconName = Bold;
id = "83B83716-1CD1-47ED-B715-8773FED73F88";
metricValues = (
{
pos = 740;
},
{
pos = 740;
},
{
pos = 500;
},
{
},
{
pos = -200;
},
{
}
);
name = Black;
userData = {
GSCornerRadius = 60;
};
}
);
glyphs = (
{
glyphname = A;
lastChange = "2021-09-12 09:27:20 +0000";
layers = (
{
layerId = "D8D2F0D2-8948-448B-99CD-378CDFD0E0AE";
shapes = (
{
closed = 1;
nodes = (
(294,740,l),
(28,0,l),
(95,0,l),
(355,740,l)
);
},
{
closed = 1;
nodes = (
(560,0,l),
(626,0,l),
(361,740,l),
(300,740,l)
);
},
{
closed = 1;
nodes = (
(156,251,l),
(499,251,l),
(499,307,l),
(156,307,l)
);
}
);
width = 655;
},
{
layerId = "83B83716-1CD1-47ED-B715-8773FED73F88";
shapes = (
{
closed = 1;
nodes = (
(288,740,l),
(30,0,l),
(226,0,l),
(462,740,l)
);
},
{
closed = 1;
nodes = (
(562,0,l),
(758,0,l),
(500,740,l),
(326,740,l)
);
},
{
closed = 1;
nodes = (
(194,144,l),
(596,144,l),
(596,304,l),
(194,304,l)
);
}
);
width = 788;
}
);
metricRight = "=|";
unicode = 65;
},
{
glyphname = B;
lastChange = "2021-09-12 09:27:20 +0000";
layers = (
{
layerId = "D8D2F0D2-8948-448B-99CD-378CDFD0E0AE";
shapes = (
{
closed = 1;
nodes = (
(177,0,l),
(177,740,l),
(114,740,l),
(114,0,l)
);
},
{
closed = 1;
nodes = (
(392,361,ls),
(530,361,o),
(630,415,o),
(630,549,cs),
(630,681,o),
(533,740,o),
(363,740,cs),
(144,740,l),
(144,683,l),
(363,683,ls),
(497,683,o),
(568,648,o),
(568,548,cs),
(568,447,o),
(497,402,o),
(363,402,cs),
(144,402,l),
(144,361,l)
);
},
{
closed = 1;
nodes = (
(392,0,ls),
(559,0,o),
(659,73,o),
(659,207,cs),
(659,340,o),
(562,387,o),
(420,387,cs),
(173,387,l),
(173,345,l),
(392,345,ls),
(526,345,o),
(596,307,o),
(596,206,cs),
(596,105,o),
(526,57,o),
(392,57,cs),
(173,57,l),
(173,0,l)
);
}
);
width = 729;
},
{
layerId = "83B83716-1CD1-47ED-B715-8773FED73F88";
width = 600;
}
);
metricLeft = "=H";
unicode = 66;
},
{
glyphname = C;
lastChange = "2021-09-12 09:27:20 +0000";
layers = (
{
layerId = "D8D2F0D2-8948-448B-99CD-378CDFD0E0AE";
shapes = (
{
closed = 1;
nodes = (
(555,97,o),
(482,47,o),
(380,47,cs),
(220,47,o),
(121,160,o),
(123,362,cs),
(125,565,o),
(221,693,o),
(384,693,cs),
(480,693,o),
(550,647,o),
(584,542,c),
(645,562,l),
(596,698,o),
(503,750,o),
(385,750,cs),
(185,750,o),
(59,597,o),
(59,360,cs),
(59,128,o),
(180,-9,o),
(377,-9,cs),
(509,-9,o),
(603,53,o),
(653,177,c),
(595,201,l)
);
}
);
width = 691;
},
{
layerId = "83B83716-1CD1-47ED-B715-8773FED73F88";
shapes = (
{
closed = 1;
nodes = (
(529,193,o),
(480,160,o),
(413,160,cs),
(308,160,o),
(250,249,o),
(250,363,cs),
(250,481,o),
(312,580,o),
(415,580,cs),
(486,580,o),
(527,540,o),
(545,490,c),
(724,562,l),
(672,699,o),
(551,750,o),
(418,750,cs),
(186,750,o),
(56,585,o),
(56,360,cs),
(56,131,o),
(190,-10,o),
(412,-10,cs),
(564,-10,o),
(681,55,o),
(736,188,c),
(563,260,l)
);
}
);
width = 770;
}
);
metricLeft = "=O";
unicode = 67;
},
{
glyphname = D;
lastChange = "2021-09-12 09:27:20 +0000";
layers = (
{
layerId = "D8D2F0D2-8948-448B-99CD-378CDFD0E0AE";
shapes = (
{
closed = 1;
nodes = (
(114,740,l),
(114,0,l),
(177,0,l),
(177,740,l)
);
},
{
closed = 1;
nodes = (
(287,0,ls),
(560,0,o),
(674,147,o),
(674,384,cs),
(674,616,o),
(560,740,o),
(287,740,cs),
(144,740,l),
(144,683,l),
(287,683,ls),
(520,683,o),
(609,578,o),
(609,379,cs),
(609,176,o),
(524,57,o),
(287,57,cs),
(144,57,l),
(144,0,l)
);
}
);
width = 733;
},
{
layerId = "83B83716-1CD1-47ED-B715-8773FED73F88";
shapes = (
{
closed = 1;
nodes = (
(70,740,l),
(70,0,l),
(266,0,l),
(266,740,l)
);
},
{
closed = 1;
nodes = (
(316,0,ls),
(593,0,o),
(722,155,o),
(722,385,cs),
(722,609,o),
(593,740,o),
(316,740,cs),
(162,740,l),
(162,580,l),
(307,580,ls),
(447,580,o),
(516,510,o),
(516,377,cs),
(516,241,o),
(451,160,o),
(307,160,cs),
(162,160,l),
(162,0,l)
);
}
);
width = 784;
}
);
metricLeft = "=H";
metricRight = "=O";
unicode = 68;
},
{
glyphname = E;
lastChange = "2021-09-12 11:55:24 +0000";
layers = (
{
layerId = "D8D2F0D2-8948-448B-99CD-378CDFD0E0AE";
shapes = (
{
closed = 1;
nodes = (
(114,740,l),
(114,0,l),
(178,0,l),
(178,740,l)
);
},
{
closed = 1;
nodes = (
(144,684,l),
(592,684,l),
(592,740,l),
(144,740,l)
);
},
{
closed = 1;
nodes = (
(144,0,l),
(592,0,l),
(592,56,l),
(144,56,l)
);
},
{
closed = 1;
nodes = (
(144,374,l),
(552,374,l),
(552,430,l),
(144,430,l)
);
}
);
width = 640;
},
{
layerId = "83B83716-1CD1-47ED-B715-8773FED73F88";
shapes = (
{
closed = 1;
nodes = (
(80,740,l),
(80,0,l),
(266,0,l),
(266,740,l)
);
},
{
closed = 1;
nodes = (
(152,312,l),
(534,312,l),
(534,470,l),
(152,470,l)
);
},
{
closed = 1;
nodes = (
(152,582,l),
(604,582,l),
(604,740,l),
(152,740,l)
);
},
{
closed = 1;
nodes = (
(152,0,l),
(604,0,l),
(604,158,l),
(152,158,l)
);
}
);
width = 640;
}
);
metricLeft = "=H";
unicode = 69;
},
{
glyphname = F;
lastChange = "2021-09-12 11:56:11 +0000";
layers = (
{
layerId = "D8D2F0D2-8948-448B-99CD-378CDFD0E0AE";
shapes = (
{
closed = 1;
nodes = (
(114,740,l),
(114,0,l),
(178,0,l),
(178,740,l)
);
},
{
closed = 1;
nodes = (
(144,684,l),
(602,684,l),
(602,740,l),
(144,740,l)
);
},
{
closed = 1;
nodes = (
(144,364,l),
(562,364,l),
(562,420,l),
(144,420,l)
);
}
);
width = 650;
},
{
layerId = "83B83716-1CD1-47ED-B715-8773FED73F88";
shapes = (
{
closed = 1;
nodes = (
(80,740,l),
(80,0,l),
(266,0,l),
(266,740,l)
);
},
{
closed = 1;
nodes = (
(152,292,l),
(534,292,l),
(534,450,l),
(152,450,l)
);
},
{
closed = 1;
nodes = (
(152,582,l),
(604,582,l),
(604,740,l),
(152,740,l)
);
}
);
width = 640;
}
);
metricLeft = "=H";
metricRight = "=E";
unicode = 70;
},
{
glyphname = G;
lastChange = "2022-08-04 17:57:20 +0000";
layers = (
{
layerId = "D8D2F0D2-8948-448B-99CD-378CDFD0E0AE";
shapes = (
{
closed = 1;
nodes = (
(623,408,l),
(642,174,o),
(549,47,o),
(382,47,cs),
(227,47,o),
(127,158,o),
(127,362,cs),
(127,565,o),
(228,693,o),
(392,693,cs),
(490,693,o),
(568,647,o),
(597,542,c),
(659,562,l),
(613,698,o),
(513,750,o),
(395,750,cs),
(192,750,o),
(63,593,o),
(63,356,cs),
(63,124,o),
(187,-9,o),
(381,-9,cs),
(588,-9,o),
(703,147,o),
(683,408,c)
);
},
{
closed = 1;
nodes = (
(643,351,l),
(683,408,l),
(346,408,l),
(346,351,l)
);
}
);
width = 736;
},
{
layerId = "83B83716-1CD1-47ED-B715-8773FED73F88";
shapes = (
{
closed = 1;
nodes = (
(565,355,l),
(593,234,o),
(527,160,o),
(417,160,cs),
(308,160,o),
(250,249,o),
(250,363,cs),
(250,481,o),
(312,580,o),
(415,580,cs),
(486,580,o),
(527,540,o),
(545,490,c),
(724,562,l),
(672,699,o),
(551,750,o),
(418,750,cs),
(186,750,o),
(56,585,o),
(56,360,cs),
(56,131,o),
(190,-10,o),
(418,-10,cs),
(655,-10,o),
(786,145,o),
(753,456,c)
);
},
{
closed = 1;
nodes = (
(713,288,l),
(753,456,l),
(371,456,l),
(371,288,l)
);
}
);
width = 812;
}
);
metricLeft = "=O";
unicode = 71;
},
{
glyphname = H;
lastChange = "2021-09-12 11:51:55 +0000";
layers = (
{
layerId = "D8D2F0D2-8948-448B-99CD-378CDFD0E0AE";
shapes = (
{
closed = 1;
nodes = (
(114,740,l),
(114,0,l),
(178,0,l),
(178,740,l)
);
},
{
closed = 1;
nodes = (
(570,740,l),
(570,0,l),
(634,0,l),
(634,740,l)
);
},
{
closed = 1;
nodes = (
(144,372,l),
(602,372,l),
(602,430,l),
(144,430,l)
);
}
);
width = 748;
},
{
layerId = "83B83716-1CD1-47ED-B715-8773FED73F88";
shapes = (
{
closed = 1;
nodes = (
(80,740,l),
(80,0,l),
(266,0,l),
(266,740,l)
);
},
{
closed = 1;
nodes = (
(522,740,l),
(522,0,l),
(708,0,l),
(708,740,l)
);
},
{
closed = 1;
nodes = (
(152,310,l),
(634,310,l),
(634,470,l),
(152,470,l)
);
}
);
width = 788;
}
);
metricRight = "=|";
unicode = 72;
},
{
glyphname = I;
lastChange = "2021-09-12 09:27:20 +0000";
layers = (
{
layerId = "D8D2F0D2-8948-448B-99CD-378CDFD0E0AE";
shapes = (
{
closed = 1;
nodes = (
(114,740,l),
(114,0,l),
(177,0,l),
(177,740,l)
);
}
);
width = 290;
},
{
layerId = "83B83716-1CD1-47ED-B715-8773FED73F88";
shapes = (
{
closed = 1;
nodes = (
(70,740,l),
(70,0,l),
(266,0,l),
(266,740,l)
);
}
);
width = 336;
}
);
metricLeft = "=H";
metricRight = "=H";
unicode = 73;
},
{
glyphname = J;
lastChange = "2021-09-12 09:27:20 +0000";
layers = (
{
layerId = "D8D2F0D2-8948-448B-99CD-378CDFD0E0AE";
shapes = (
{
closed = 1;
nodes = (
(231,-27,o),
(292,24,o),
(292,228,cs),
(292,740,l),
(230,740,l),
(230,226,ls),
(230,55,o),
(187,34,o),
(47,58,c),
(39,0,l)
);
}
);
width = 397;
},
{
layerId = "83B83716-1CD1-47ED-B715-8773FED73F88";
shapes = (
{
closed = 1;
nodes = (
(226,10,o),
(308,81,o),
(308,260,cs),
(308,740,l),
(122,740,l),
(122,273,ls),
(122,202,o),
(105,171,o),
(20,165,c),
(31,-10,l)
);
}
);
width = 600;
},
{
associatedMasterId = "D8D2F0D2-8948-448B-99CD-378CDFD0E0AE";
layerId = "7F9D26FB-564C-4C0E-BC72-198310F9C550";
name = "Sep 11 21, 16:01";
shapes = (
{
closed = 1;
nodes = (
(243,22,o),
(308,85,o),
(308,240,cs),
(308,780,l),
(242,780,l),
(242,238,ls),
(242,118,o),
(197,76,o),
(46,51,c),
(51,-10,l)
);
}
);
width = 418;
}
);
metricRight = "=U";
unicode = 74;
},
{
glyphname = K;
lastChange = "2021-09-12 09:27:20 +0000";
layers = (
{
layerId = "D8D2F0D2-8948-448B-99CD-378CDFD0E0AE";
shapes = (
{
closed = 1;
nodes = (
(114,740,l),
(114,0,l),
(177,0,l),
(177,740,l)
);
},
{
closed = 1;
nodes = (
(595,740,l),
(515,740,l),
(126,307,l),
(159,259,l)
);
},
{
closed = 1;
nodes = (
(240,403,l),
(544,0,l),
(623,0,l),
(285,447,l)
);
}
);
width = 642;
},
{
layerId = "83B83716-1CD1-47ED-B715-8773FED73F88";
shapes = (
{
closed = 1;
nodes = (
(70,740,l),
(70,0,l),
(266,0,l),
(266,740,l)
);
},
{
closed = 1;
nodes = (
(754,740,l),
(513,740,l),
(107,283,l),
(194,126,l)
);
},
{
closed = 1;
nodes = (
(262,415,l),
(543,0,l),
(778,0,l),
(463,467,l)
);
}
);
width = 798;
}
);
metricLeft = "=H";
unicode = 75;
},
{
glyphname = L;
lastChange = "2021-09-12 11:55:57 +0000";
layers = (
{
layerId = "D8D2F0D2-8948-448B-99CD-378CDFD0E0AE";
shapes = (
{
closed = 1;
nodes = (
(114,740,l),
(114,0,l),
(178,0,l),
(178,740,l)
);
},
{
closed = 1;
nodes = (
(144,0,l),
(592,0,l),
(592,56,l),
(144,56,l)
);
}
);
width = 632;
},
{
layerId = "83B83716-1CD1-47ED-B715-8773FED73F88";
shapes = (
{
closed = 1;
nodes = (
(70,740,l),
(70,0,l),
(266,0,l),
(266,740,l)
);
},
{
closed = 1;
nodes = (
(152,0,l),
(604,0,l),
(604,168,l),
(152,168,l)
);
}
);
width = 644;
}
);
metricLeft = "=H";
metricRight = "=+40";
unicode = 76;
},
{
glyphname = M;
lastChange = "2021-09-12 09:27:20 +0000";
layers = (
{
layerId = "D8D2F0D2-8948-448B-99CD-378CDFD0E0AE";
shapes = (
{
closed = 1;
nodes = (
(419,300,l),
(465,300,l),
(192,740,l),
(118,740,l),
(439,223,l),
(441,223,l),
(763,740,l),
(693,740,l)
);
},
{
closed = 1;
nodes = (
(114,740,l),
(114,0,l),
(175,0,l),
(175,740,l)
);
},
{
closed = 1;
nodes = (
(706,740,l),
(706,0,l),
(767,0,l),
(767,740,l)
);
}
);
width = 881;
},
{
layerId = "83B83716-1CD1-47ED-B715-8773FED73F88";
shapes = (
{
closed = 1;
nodes = (
(451,445,l),
(475,445,l),
(279,740,l),
(70,740,l),
(462,145,l),
(464,145,l),
(856,740,l),
(647,740,l)
);
},
{
closed = 1;
nodes = (
(60,740,l),
(60,0,l),
(240,0,l),
(240,740,l)
);
},
{
closed = 1;
nodes = (
(686,740,l),
(686,0,l),
(866,0,l),
(866,740,l)
);
}
);
width = 926;
}
);
metricLeft = "=H";
metricRight = "=H";
unicode = 77;
},
{
glyphname = N;
lastChange = "2021-09-12 09:27:20 +0000";
layers = (
{
layerId = "D8D2F0D2-8948-448B-99CD-378CDFD0E0AE";
shapes = (
{
closed = 1;
nodes = (
(114,740,l),
(114,0,l),
(173,0,l),
(173,740,l)
);
},
{
closed = 1;
nodes = (
(575,740,l),
(575,0,l),
(634,0,l),
(634,740,l)
);
},
{
closed = 1;
nodes = (
(114,740,l),
(561,0,l),
(634,0,l),
(187,740,l)
);
}
);
width = 748;
},
{
associatedMasterId = "83B83716-1CD1-47ED-B715-8773FED73F88";
layerId = "761FAA93-50F0-4A63-9565-8A06E3A7F0F2";
name = "Aug 25 21, 12:50";
shapes = (
{
closed = 1;
nodes = (
(70,780,l),
(70,0,l),
(254,0,l),
(254,780,l)
);
},
{
closed = 1;
nodes = (
(532,780,l),
(532,0,l),
(716,0,l),
(716,780,l)
);
},
{
closed = 1;
nodes = (
(70,780,l),
(540,187,l),
(716,250,l),
(296,780,l)
);
}
);
width = 786;
},
{
layerId = "83B83716-1CD1-47ED-B715-8773FED73F88";
shapes = (
{
closed = 1;
nodes = (
(80,740,l),
(80,0,l),
(258,0,l),
(258,740,l)
);
},
{
closed = 1;
nodes = (
(548,740,l),
(548,0,l),
(726,0,l),
(726,740,l)
);
},
{
closed = 1;
nodes = (
(80,740,l),
(521,0,l),
(726,0,l),
(285,740,l)
);
}
);
width = 806;
}
);
metricLeft = "=H";
metricRight = "=H";
unicode = 78;
},
{
glyphname = O;
lastChange = "2021-09-12 09:27:20 +0000";
layers = (
{
layerId = "D8D2F0D2-8948-448B-99CD-378CDFD0E0AE";
shapes = (
{
closed = 1;
nodes = (
(59,124,o),
(182,-9,o),
(367,-9,cs),
(562,-9,o),
(685,147,o),
(685,384,cs),
(685,616,o),
(562,750,o),
(377,750,cs),
(182,750,o),
(59,593,o),
(59,356,cs)
);
},
{
closed = 1;
nodes = (
(123,565,o),
(218,693,o),
(374,693,cs),
(522,693,o),
(621,578,o),
(621,379,cs),
(621,176,o),
(526,47,o),
(370,47,cs),
(222,47,o),
(123,161,o),
(123,362,cs)
);
}
);
width = 744;
},
{
layerId = "83B83716-1CD1-47ED-B715-8773FED73F88";
shapes = (
{
closed = 1;
nodes = (
(56,135,o),
(185,-10,o),
(406,-10,cs),
(629,-10,o),
(766,150,o),
(766,381,cs),
(766,605,o),
(637,750,o),
(416,750,cs),
(193,750,o),
(56,589,o),
(56,360,cs)
);
},
{
closed = 1;
nodes = (
(252,504,o),
(309,584,o),
(413,584,cs),
(514,584,o),
(570,509,o),
(570,373,cs),
(570,236,o),
(513,155,o),
(409,155,cs),
(308,155,o),
(252,231,o),
(252,367,cs)
);
}
);
width = 822;
}
);
metricRight = "=|";
unicode = 79;
},
{
glyphname = P;
lastChange = "2021-09-12 09:27:20 +0000";
layers = (
{
layerId = "D8D2F0D2-8948-448B-99CD-378CDFD0E0AE";
shapes = (
{
closed = 1;
nodes = (
(177,0,l),
(177,740,l),
(114,740,l),
(114,0,l)
);
},
{
closed = 1;
nodes = (
(363,345,ls),
(530,345,o),
(630,415,o),
(630,549,cs),
(630,681,o),
(533,740,o),
(363,740,cs),
(144,740,l),
(144,683,l),
(363,683,ls),
(497,683,o),
(568,648,o),
(568,548,cs),
(568,447,o),
(497,402,o),
(363,402,cs),
(144,402,l),
(144,345,l)
);
}
);
width = 678;
},
{
layerId = "83B83716-1CD1-47ED-B715-8773FED73F88";
shapes = (
{
closed = 1;
nodes = (
(392,264,ls),
(586,264,o),
(712,335,o),
(712,503,cs),
(712,666,o),
(594,740,o),
(392,740,cs),
(218,740,l),
(218,580,l),
(390,580,ls),
(468,580,o),
(506,562,o),
(506,503,cs),
(506,441,o),
(464,424,o),
(390,424,cs),
(218,424,l),
(218,264,l)
);
},
{
closed = 1;
nodes = (
(70,740,l),
(70,0,l),
(266,0,l),
(266,740,l)
);
}
);
width = 736;
}
);
metricLeft = "=H";
unicode = 80;
},
{
glyphname = Q;
lastChange = "2021-09-12 09:27:20 +0000";
layers = (
{
layerId = "D8D2F0D2-8948-448B-99CD-378CDFD0E0AE";
shapes = (
{
closed = 1;
nodes = (
(674,-38,l),
(714,3,l),
(460,256,l),
(420,215,l)
);
},
{
ref = O;
}
);
width = 752;
},
{
layerId = "83B83716-1CD1-47ED-B715-8773FED73F88";
shapes = (
{
closed = 1;
nodes = (
(666,-63,l),
(792,63,l),
(505,350,l),
(379,224,l)
);
},
{
ref = O;
}
);
width = 842;
}
);
metricLeft = "=O";
unicode = 81;
},
{
glyphname = R;
lastChange = "2021-09-12 09:27:20 +0000";
layers = (
{
layerId = "D8D2F0D2-8948-448B-99CD-378CDFD0E0AE";
shapes = (
{
closed = 1;
nodes = (
(177,0,l),
(177,740,l),
(114,740,l),
(114,0,l)
);
},
{
closed = 1;
nodes = (
(363,345,ls),
(530,345,o),
(630,415,o),
(630,549,cs),
(630,681,o),
(533,740,o),
(363,740,cs),
(144,740,l),
(144,683,l),
(363,683,ls),
(497,683,o),
(568,648,o),
(568,548,cs),
(568,447,o),
(497,402,o),
(363,402,cs),
(144,402,l),
(144,345,l)
);
},
{
closed = 1;
nodes = (
(575,0,l),
(645,0,l),
(465,362,l),
(399,361,l)
);
}
);
width = 693;
},
{
layerId = "83B83716-1CD1-47ED-B715-8773FED73F88";
shapes = (
{
closed = 1;
nodes = (
(392,264,ls),
(586,264,o),
(712,335,o),
(712,503,cs),
(712,666,o),
(594,740,o),
(392,740,cs),
(218,740,l),
(218,580,l),
(390,580,ls),
(468,580,o),
(506,562,o),
(506,503,cs),
(506,441,o),
(464,424,o),
(390,424,cs),
(218,424,l),
(218,264,l)
);
},
{
closed = 1;
nodes = (
(522,0,l),
(744,0,l),
(554,355,l),
(351,330,l)
);
},
{
closed = 1;
nodes = (
(70,740,l),
(70,0,l),
(266,0,l),
(266,740,l)
);
}
);
width = 762;
}
);
metricLeft = "=H";
unicode = 82;
},
{
glyphname = S;
lastChange = "2021-09-12 09:27:20 +0000";
layers = (
{
layerId = "83B83716-1CD1-47ED-B715-8773FED73F88";
width = 600;
},
{
associatedMasterId = "D8D2F0D2-8948-448B-99CD-378CDFD0E0AE";
layerId = "9BF5987E-DBA8-4C28-99DD-D78EF1ED3B67";
name = "Aug 25 21, 21:55";
shapes = (
{
closed = 1;
nodes = (
(99,55,o),
(190,-10,o),
(330,-10,cs),
(485,-10,o),
(588,71,o),
(588,197,cs),
(588,458,o),
(154,384,o),
(154,588,cs),
(154,659,o),
(206,734,o),
(331,734,cs),
(454,734,o),
(501,661,o),
(521,586,c),
(583,606,l),
(549,723,o),
(463,790,o),
(331,790,cs),
(177,790,o),
(90,700,o),
(90,583,cs),
(90,322,o),
(524,396,o),
(524,192,cs),
(524,117,o),
(465,47,o),
(332,47,cs),
(222,47,o),
(156,97,o),
(123,194,c),
(62,174,l)
);
}
);
width = 666;
},
{
associatedMasterId = "D8D2F0D2-8948-448B-99CD-378CDFD0E0AE";
guides = (
{
angle = 219.8056;
pos = (557,855);
}
);
layerId = "EB3AAA4A-06AE-4173-BE5A-F964DF34B32D";
name = "Sep 11 21, 16:51";
shapes = (
{
closed = 1;
nodes = (
(133,31,o),
(221,-10,o),
(331,-10,cs),
(485,-10,o),
(588,71,o),
(588,197,cs),
(588,458,o),
(154,384,o),
(154,587,cs),
(154,657,o),
(206,732,o),
(331,732,cs),
(413,732,o),
(472,700,o),
(529,616,c),
(581,658,l),
(519,750,o),
(434,790,o),
(331,790,cs),
(176,790,o),
(90,700,o),
(90,583,cs),
(90,322,o),
(524,396,o),
(524,193,cs),
(524,118,o),
(465,48,o),
(333,48,cs),
(245,48,o),
(182,79,o),
(116,163,c),
(64,122,l)
);
}
);
width = 666;
},
{
guides = (
{
angle = 219.8056;
pos = (557,855);
}
);
layerId = "D8D2F0D2-8948-448B-99CD-378CDFD0E0AE";
shapes = (
{
closed = 1;
nodes = (
(119,29,o),
(206,-9,o),
(314,-9,cs),
(466,-9,o),
(566,67,o),
(566,190,cs),
(566,444,o),
(140,364,o),
(140,557,cs),
(140,623,o),
(191,695,o),
(314,695,cs),
(395,695,o),
(454,664,o),
(510,585,c),
(561,624,l),
(500,712,o),
(416,750,o),
(314,750,cs),
(161,750,o),
(79,664,o),
(79,553,cs),
(79,306,o),
(505,385,o),
(505,186,cs),
(505,112,o),
(447,46,o),
(316,46,cs),
(230,46,o),
(167,75,o),
(102,155,c),
(51,116,l)
);
}
);
width = 632;
}
);
unicode = 83;
},
{
glyphname = T;
lastChange = "2021-09-12 11:56:32 +0000";
layers = (
{
layerId = "D8D2F0D2-8948-448B-99CD-378CDFD0E0AE";
shapes = (
{
closed = 1;
nodes = (
(262,740,l),
(262,0,l),
(326,0,l),
(326,740,l)
);
},
{
closed = 1;
nodes = (
(10,683,l),
(578,683,l),
(578,740,l),
(10,740,l)
);
}
);
width = 586;
},
{
layerId = "83B83716-1CD1-47ED-B715-8773FED73F88";
shapes = (
{
closed = 1;
nodes = (
(254,740,l),
(254,0,l),
(450,0,l),
(450,740,l)
);
},
{
closed = 1;
nodes = (
(30,570,l),
(674,570,l),
(674,740,l),
(30,740,l)
);
}
);
width = 704;
}
);
metricRight = "=|";
unicode = 84;
},
{
glyphname = U;
lastChange = "2021-09-12 09:27:20 +0000";
layers = (
{
layerId = "D8D2F0D2-8948-448B-99CD-378CDFD0E0AE";
shapes = (
{
closed = 1;
nodes = (
(104,96,o),
(209,-9,o),
(379,-9,cs),
(556,-9,o),
(653,105,o),
(653,294,cs),
(653,740,l),
(590,740,l),
(590,294,ls),
(590,141,o),
(520,47,o),
(379,47,cs),
(245,47,o),
(167,133,o),
(167,294,cs),
(167,740,l),
(104,740,l),
(104,294,ls)
);
}
);
width = 757;
},
{
layerId = "83B83716-1CD1-47ED-B715-8773FED73F88";
shapes = (
{
closed = 1;
nodes = (
(60,94,o),
(182,-10,o),
(376,-10,cs),
(578,-10,o),
(692,104,o),
(692,305,cs),
(692,740,l),
(496,740,l),
(496,306,ls),
(496,223,o),
(459,166,o),
(376,166,cs),
(297,166,o),
(256,219,o),
(256,306,cs),
(256,740,l),
(60,740,l),
(60,305,ls)
);
}
);
width = 752;
}
);
metricLeft = "=H-10";
metricRight = "=|";
unicode = 85;
},
{
glyphname = V;
lastChange = "2021-09-12 09:27:20 +0000";
layers = (
{
layerId = "D8D2F0D2-8948-448B-99CD-378CDFD0E0AE";
shapes = (
{
closed = 1;
nodes = (
(95,740,l),
(28,740,l),
(294,0,l),
(355,0,l)
);
},
{
closed = 1;
nodes = (
(361,0,l),
(626,740,l),
(560,740,l),
(300,0,l)
);
}
);
width = 655;
},
{
layerId = "83B83716-1CD1-47ED-B715-8773FED73F88";
shapes = (
{
closed = 1;
nodes = (
(510,0,l),
(768,740,l),
(562,740,l),
(336,0,l)
);
},
{
closed = 1;
nodes = (
(246,740,l),
(40,740,l),
(298,0,l),
(472,0,l)
);
}
);
width = 808;
}
);
metricLeft = "=A";
metricRight = "=A";
unicode = 86;
},
{
glyphname = W;
lastChange = "2021-09-12 09:27:20 +0000";
layers = (
{
layerId = "D8D2F0D2-8948-448B-99CD-378CDFD0E0AE";
shapes = (
{
closed = 1;
nodes = (
(140,740,l),
(76,740,l),
(228,0,l),
(288,0,l)
);
},
{
closed = 1;
nodes = (
(740,0,l),
(892,740,l),
(828,740,l),
(679,0,l)
);
},
{
closed = 1;
nodes = (
(294,0,l),
(484,417,l),
(674,0,l),
(735,0,l),
(484,554,l),
(233,0,l)
);
}
);
width = 968;
},
{
layerId = "83B83716-1CD1-47ED-B715-8773FED73F88";
shapes = (
{
closed = 1;
nodes = (
(238,740,l),
(40,740,l),
(170,0,l),
(344,0,l)
);
},
{
closed = 1;
nodes = (
(822,0,l),
(952,740,l),
(754,740,l),
(648,0,l)
);
},
{
closed = 1;
nodes = (
(218,0,l),
(366,0,l),
(496,251,l),
(626,0,l),
(774,0,l),
(774,86,l),
(496,617,l),
(218,86,l)
);
}
);
width = 992;
},
{
associatedMasterId = "D8D2F0D2-8948-448B-99CD-378CDFD0E0AE";
layerId = "4697C7CF-CB3F-4DA3-8F3E-379320C0A47F";
name = "Aug 15 21, 19:34";
shapes = (
{
closed = 1;
nodes = (
(100,780,l),
(30,780,l),
(320,0,l),
(384,0,l)
);
},
{
closed = 1;
nodes = (
(390,0,l),
(680,780,l),
(612,780,l),
(328,0,l)
);
},
{
closed = 1;
nodes = (
(402,780,l),
(334,780,l),
(624,0,l),
(686,0,l)
);
},
{
closed = 1;
nodes = (
(694,0,l),
(984,780,l),
(914,780,l),
(630,0,l)
);
}
);
width = 1014;
}
);
metricLeft = "=H-40";
metricRight = "=|";
unicode = 87;
},
{
glyphname = X;
lastChange = "2021-09-12 09:27:20 +0000";
layers = (
{
layerId = "D8D2F0D2-8948-448B-99CD-378CDFD0E0AE";
shapes = (
{
closed = 1;
nodes = (
(274,370,l),
(35,0,l),
(109,0,l),
(334,349,l),
(296,349,l),
(521,0,l),
(595,0,l),
(356,370,l),
(596,740,l),
(521,740,l),
(296,390,l),
(334,390,l),
(109,740,l),
(34,740,l)
);
}
);
width = 630;
},
{
layerId = "83B83716-1CD1-47ED-B715-8773FED73F88";
shapes = (
{
closed = 1;
nodes = (
(247,370,l),
(17,0,l),
(235,0,l),
(442,336,l),
(322,336,l),
(529,0,l),
(747,0,l),
(517,370,l),
(748,740,l),
(529,740,l),
(322,403,l),
(442,403,l),
(235,740,l),
(16,740,l)
);
}
);
width = 764;
}
);
metricRight = "=|";
unicode = 88;
},
{
glyphname = Y;
lastChange = "2021-09-12 09:27:20 +0000";
layers = (
{
layerId = "D8D2F0D2-8948-448B-99CD-378CDFD0E0AE";
shapes = (
{
closed = 1;
nodes = (
(92,740,l),
(19,740,l),
(290,372,l),
(344,399,l)
);
},
{
closed = 1;
nodes = (
(345,372,l),
(617,740,l),
(544,740,l),
(292,399,l)
);
},
{
closed = 1;
nodes = (
(287,389,l),
(287,0,l),
(349,0,l),
(349,389,l)
);
}
);
width = 636;
},
{
layerId = "83B83716-1CD1-47ED-B715-8773FED73F88";
shapes = (
{
closed = 1;
nodes = (
(510,328,l),
(798,740,l),
(580,740,l),
(340,390,l)
);
},
{
closed = 1;
nodes = (
(248,740,l),
(30,740,l),
(318,328,l),
(488,390,l)
);
},
{
closed = 1;
nodes = (
(316,464,l),
(316,0,l),
(512,0,l),
(512,464,l)
);
}
);
width = 828;
}
);
metricRight = "=|";
unicode = 89;
},
{
glyphname = Z;
lastChange = "2021-09-12 09:27:20 +0000";
layers = (
{
layerId = "D8D2F0D2-8948-448B-99CD-378CDFD0E0AE";
shapes = (
{
closed = 1;
nodes = (
(47,683,l),
(507,683,l),
(566,709,l),
(566,740,l),
(47,740,l)
);
},
{
closed = 1;
nodes = (
(47,0,l),
(566,0,l),
(566,57,l),
(102,57,l),
(47,31,l)
);
},
{
closed = 1;
nodes = (
(121,31,l),
(566,709,l),
(493,709,l),
(47,31,l)
);
}
);
width = 613;
},
{
layerId = "83B83716-1CD1-47ED-B715-8773FED73F88";
shapes = (
{
closed = 1;
nodes = (
(40,572,l),
(521,572,l),
(615,602,l),
(615,740,l),
(40,740,l)
);
},
{
closed = 1;
nodes = (
(40,0,l),
(615,0,l),
(615,168,l),
(130,168,l),
(40,138,l)
);
},
{
closed = 1;
nodes = (
(259,122,l),
(615,602,l),
(396,618,l),
(40,138,l)
);
}
);
width = 655;
}
);
metricRight = "=|";
unicode = 90;
},
{
glyphname = a;
lastChange = "2025-05-26 20:01:21 +0000";
layers = (
{
associatedMasterId = "D8D2F0D2-8948-448B-99CD-378CDFD0E0AE";
layerId = "94CCDA71-E755-480C-A8CD-5980D46832D0";
name = "Aug 11 21, 19:40";
shapes = (
{
closed = 1;
nodes = (
(155,447,o),
(205,466,o),
(264,466,cs),
(323,466,o),
(368,447,o),
(368,365,cs),
(368,111,ls),
(368,23,o),
(402,-10,o),
(488,-1,c),
(488,49,l),
(438,48,o),
(428,58,o),
(428,121,cs),
(428,366,ls),
(428,482,o),
(365,520,o),
(269,520,cs),
(194,520,o),
(134,497,o),
(88,471,c),
(103,417,l)
);
},
{
closed = 1;
nodes = (
(70,50,o),
(125,-10,o),
(215,-10,cs),
(287,-10,o),
(352,28,o),
(390,106,c),
(368,165,l),
(368,94,o),
(296,42,o),
(224,42,cs),
(159,42,o),
(130,85,o),
(130,139,cs),
(130,216,o),
(188,267,o),
(389,321,c),
(382,367,l),
(140,308,o),
(70,238,o),
(70,138,cs)
);
}
);
width = 532;
},
{
layerId = "83B83716-1CD1-47ED-B715-8773FED73F88";
shapes = (
{
closed = 1;
nodes = (
(133,352,o),
(200,374,o),
(261,374,cs),
(300,374,o),
(318,365,o),
(318,341,cs),
(318,125,l),
(320,101,l),
(330,23,o),
(384,-22,o),
(536,0,c),
(530,150,l),
(495,146,o),
(484,158,o),
(484,201,cs),
(484,326,ls),
(484,482,o),
(388,510,o),
(274,510,cs),
(173,510,o),
(101,488,o),
(45,463,c),
(85,327,l)
);
},
{
closed = 1;
nodes = (
(30,49,o),
(88,-10,o),
(177,-10,cs),
(248,-10,o),
(310,28,o),
(338,96,c),
(318,207,l),
(318,158,o),
(277,126,o),
(236,126,cs),
(212,126,o),
(200,137,o),
(200,155,cs),
(200,185,o),
(233,207,o),
(329,225,c),
(332,341,l),
(112,310,o),
(30,247,o),
(30,139,cs)
);
}
);
width = 546;
},
{
associatedMasterId = "83B83716-1CD1-47ED-B715-8773FED73F88";
layerId = "92778B27-1C9E-4650-8467-15F9EE864B6B";
name = "Aug 25 21, 12:23";
shapes = (
{
closed = 1;
nodes = (
(125,352,o),
(204,374,o),
(265,374,cs),
(304,374,o),
(318,365,o),
(318,341,cs),
(318,125,l),
(320,101,l),
(330,23,o),
(384,-22,o),
(536,0,c),
(530,150,l),
(495,146,o),
(484,158,o),
(484,201,cs),
(484,326,ls),
(484,472,o),
(408,510,o),
(287,510,cs),
(193,510,o),
(103,487,o),
(45,463,c),
(71,329,l)
);
},
{
closed = 1;
nodes = (
(40,49,o),
(98,-10,o),
(187,-10,cs),
(259,-10,o),
(310,28,o),
(338,96,c),
(318,207,l),
(318,158,o),
(287,126,o),
(246,126,cs),
(222,126,o),
(210,137,o),
(210,155,cs),
(210,185,o),
(242,208,o),
(329,229,c),
(332,341,l),
(122,310,o),
(40,247,o),
(40,139,cs)
);
}
);
width = 546;
},
{
associatedMasterId = "D8D2F0D2-8948-448B-99CD-378CDFD0E0AE";
layerId = "17289B10-4F0B-4657-9C91-34F1C9B64FBB";
name = "Aug 25 21, 16:15";
shapes = (
{
closed = 1;
nodes = (
(158,437,o),
(213,456,o),
(271,456,cs),
(331,456,o),
(368,435,o),
(368,365,cs),
(368,125,l),
(372,111,l),
(372,23,o),
(402,-12,o),
(492,0,c),
(488,50,l),
(438,46,o),
(428,58,o),
(428,121,cs),
(428,366,ls),
(428,472,o),
(372,510,o),
(276,510,cs),
(201,510,o),
(140,487,o),
(100,465,c),
(115,411,l)
);
},
{
closed = 1;
nodes = (
(72,48,o),
(125,-10,o),
(215,-10,cs),
(288,-10,o),
(354,28,o),
(392,106,c),
(368,167,l),
(368,96,o),
(297,44,o),
(224,44,cs),
(159,44,o),
(132,85,o),
(132,136,cs),
(132,216,o),
(200,257,o),
(389,310,c),
(382,359,l),
(152,300,o),
(72,236,o),
(72,132,cs)
);
}
);
width = 534;
},
{
associatedMasterId = "D8D2F0D2-8948-448B-99CD-378CDFD0E0AE";
layerId = "CC5E7E17-F272-4A35-B6AF-AB9C011C52E0";
name = "Sep 10 21, 23:42";
shapes = (
{
closed = 1;
nodes = (
(158,437,o),
(213,456,o),
(271,456,cs),
(331,456,o),
(368,435,o),
(368,365,cs),
(368,125,l),
(376,121,l),
(372,41,o),
(417,0,o),
(472,-8,c),
(487,44,l),
(441,53,o),
(428,77,o),
(428,131,cs),
(428,366,ls),
(428,472,o),
(372,510,o),
(276,510,cs),
(201,510,o),
(140,487,o),
(100,465,c),
(115,411,l)
);
},
{
closed = 1;
nodes = (
(72,48,o),
(125,-10,o),
(215,-10,cs),
(288,-10,o),
(354,28,o),
(392,106,c),
(368,167,l),
(368,96,o),
(297,44,o),
(224,44,cs),
(159,44,o),
(132,85,o),
(132,136,cs),
(132,216,o),
(200,257,o),
(389,310,c),
(382,359,l),
(152,300,o),
(72,236,o),
(72,132,cs)
);
}
);
width = 534;
},
{
layerId = "D8D2F0D2-8948-448B-99CD-378CDFD0E0AE";
shapes = (
{
closed = 1;
nodes = (
(160,437,o),
(213,456,o),
(271,456,cs),
(331,456,o),
(368,435,o),
(368,365,cs),
(368,125,l),
(374,111,l),
(373,23,o),
(422,-2,o),
(482,-2,c),
(486,48,l),
(438,52,o),
(428,67,o),
(428,131,cs),
(428,366,ls),
(428,472,o),
(372,510,o),
(276,510,cs),
(201,510,o),
(140,487,o),
(100,465,c),
(119,413,l)
);
},
{
closed = 1;
nodes = (
(72,48,o),
(125,-10,o),
(215,-10,cs),
(288,-10,o),
(354,28,o),
(392,106,c),
(368,167,l),
(368,96,o),
(297,44,o),
(224,44,cs),
(159,44,o),
(132,85,o),
(132,136,cs),
(132,216,o),
(200,257,o),
(389,310,c),
(382,359,l),
(152,300,o),
(72,236,o),
(72,132,cs)
);
}
);
width = 534;
}
);
unicode = 97;
},
{
glyphname = b;
lastChange = "2021-09-12 11:51:17 +0000";
layers = (
{
layerId = "D8D2F0D2-8948-448B-99CD-378CDFD0E0AE";
shapes = (
{
closed = 1;
nodes = (
(160,0,l),
(160,740,l),
(100,740,l),
(100,0,l)
);
},
{
ref = _panse;
}
);
width = 570;
},
{
layerId = "83B83716-1CD1-47ED-B715-8773FED73F88";
shapes = (
{
closed = 1;
nodes = (
(226,0,l),
(226,740,l),
(60,740,l),
(60,0,l)
);
},
{
pos = (70,0);
ref = _panse;
}
);
width = 586;
}
);
metricLeft = "=p";
metricRight = "=p";
unicode = 98;
},
{
glyphname = c;
lastChange = "2021-09-11 13:56:01 +0000";
layers = (
{
layerId = "D8D2F0D2-8948-448B-99CD-378CDFD0E0AE";
shapes = (
{
closed = 1;
nodes = (
(439,461,o),
(372,510,o),
(280,510,cs),
(144,510,o),
(56,404,o),
(56,240,cs),
(56,83,o),
(137,-10,o),
(273,-10,cs),
(371,-10,o),
(442,39,o),
(468,122,c),
(417,139,l),
(393,76,o),
(343,42,o),
(274,42,cs),
(174,42,o),
(116,114,o),
(116,242,cs),
(116,376,o),
(180,458,o),
(278,458,cs),
(346,458,o),
(393,419,o),
(409,349,c),
(464,368,l)
);
}
);
width = 528;
},
{
layerId = "83B83716-1CD1-47ED-B715-8773FED73F88";
shapes = (
{
closed = 1;
nodes = (
(492,467,o),
(400,510,o),
(295,510,cs),
(135,510,o),
(42,408,o),
(42,239,cs),
(42,79,o),
(125,-10,o),
(289,-10,cs),
(412,-10,o),
(494,41,o),
(518,140,c),
(360,182,l),
(348,151,o),
(328,132,o),
(293,132,cs),
(244,132,o),
(220,169,o),
(220,247,cs),
(220,327,o),
(245,368,o),
(294,368,cs),
(325,368,o),
(345,352,o),
(356,318,c),
(516,358,l)
);
}
);
width = 532;
},
{
associatedMasterId = "D8D2F0D2-8948-448B-99CD-378CDFD0E0AE";
layerId = "4F3882DD-CD2B-4CE6-8882-E1F2A09F659C";
name = "Sep 11 21, 15:52";
shapes = (
{
closed = 1;
nodes = (
(428,463,o),
(363,510,o),
(270,510,cs),
(121,510,o),
(46,388,o),
(46,237,cs),
(46,52,o),
(154,-10,o),
(265,-10,cs),
(376,-10,o),
(436,52,o),
(458,122,c),
(407,139,l),
(388,89,o),
(347,42,o),
(266,42,cs),
(188,42,o),
(106,85,o),
(106,243,cs),
(106,387,o),
(175,458,o),
(268,458,cs),
(322,458,o),
(380,433,o),
(399,349,c),
(454,368,l)
);
}
);
width = 518;
}
);
metricLeft = "=o";
unicode = 99;
},
{
glyphname = d;
lastChange = "2025-05-26 20:02:14 +0000";
layers = (
{
layerId = "D8D2F0D2-8948-448B-99CD-378CDFD0E0AE";
shapes = (
{
closed = 1;
nodes = (
(410,740,l),
(410,0,l),
(470,0,l),
(470,740,l)
);
},
{
angle = 180;
pos = (570,500);
ref = _panse;
}
);
width = 570;
},
{
layerId = "83B83716-1CD1-47ED-B715-8773FED73F88";
shapes = (
{
closed = 1;
nodes = (
(360,740,l),
(360,0,l),
(526,0,l),
(526,740,l)
);
},
{
angle = 180;
pos = (516,500);
ref = _panse;
}
);
width = 586;
}
);
metricLeft = "=|p";
metricRight = "=|p";
unicode = 100;
},
{
glyphname = e;
lastChange = "2025-05-26 20:03:09 +0000";
layers = (
{
layerId = "D8D2F0D2-8948-448B-99CD-378CDFD0E0AE";
shapes = (
{
closed = 1;
nodes = (
(116,243,l),
(116,376,o),
(178,458,o),
(278,458,cs),
(364,458,o),
(414,397,o),
(414,292,c),
(475,242,l),
(483,414,o),
(412,510,o),
(281,510,cs),
(144,510,o),
(56,404,o),
(56,240,c)
);
},
{
closed = 1;
nodes = (
(89,242,l),
(475,242,l),
(435,292,l),
(89,292,l)
);
},
{
closed = 1;
nodes = (
(56,240,l),
(56,83,o),
(137,-10,o),
(273,-10,cs),
(371,-10,o),
(442,39,o),
(468,122,c),
(417,139,l),
(393,76,o),
(343,42,o),
(274,42,cs),
(174,42,o),
(116,114,o),
(116,243,c)
);
}
);
width = 530;
},
{
layerId = "83B83716-1CD1-47ED-B715-8773FED73F88";
shapes = (
{
closed = 1;
nodes = (
(326,135,o),
(306,116,o),
(266,116,cs),
(210,116,o),
(192,153,o),
(192,247,cs),
(192,343,o),
(211,384,o),
(267,384,cs),
(318,384,o),
(339,350,o),
(334,269,c),
(504,188,l),
(522,395,o),
(435,510,o),
(274,510,cs),
(113,510,o),
(22,408,o),
(22,239,cs),
(22,79,o),
(104,-10,o),
(268,-10,cs),
(388,-10,o),
(470,41,o),
(494,124,c),
(337,166,l)
);
},
{
closed = 1;
nodes = (
(52,188,l),
(504,188,l),
(471,314,l),
(52,314,l)
);
}
);
width = 522;
},
{
associatedMasterId = "D8D2F0D2-8948-448B-99CD-378CDFD0E0AE";
layerId = "55CBF1DD-922D-4222-B261-0AAB4C75428E";
name = "Sep 11 21, 15:53";
shapes = (
{
closed = 1;
nodes = (
(384,89,o),
(343,42,o),
(262,42,cs),
(184,42,o),
(102,85,o),
(102,243,cs),
(102,387,o),
(171,458,o),
(264,458,cs),
(330,458,o),
(400,421,o),
(400,292,c),
(461,242,l),
(469,421,o),
(394,510,o),
(266,510,cs),
(117,510,o),
(42,388,o),
(42,237,cs),
(42,52,o),
(150,-10,o),
(261,-10,cs),
(372,-10,o),
(432,52,o),
(454,122,c),
(403,139,l)
);
},
{
closed = 1;
nodes = (
(75,242,l),
(461,242,l),
(421,292,l),
(75,292,l)
);
}
);
width = 516;
}
);
metricLeft = "=o";
unicode = 101;
},
{
glyphname = f;
lastChange = "2021-09-11 13:56:25 +0000";
layers = (
{
layerId = "D8D2F0D2-8948-448B-99CD-378CDFD0E0AE";
shapes = (
{
closed = 1;
nodes = (
(40,446,l),
(320,446,l),
(320,500,l),
(40,500,l)
);
},
{
closed = 1;
nodes = (
(190,0,l),
(190,630,ls),
(190,712,o),
(211,744,o),
(314,725,c),
(322,780,l),
(191,804,o),
(130,750,o),
(130,640,cs),
(130,0,l)
);
}
);
width = 342;
},
{
layerId = "83B83716-1CD1-47ED-B715-8773FED73F88";
shapes = (
{
closed = 1;
nodes = (
(25,350,l),
(361,350,l),
(361,500,l),
(25,500,l)
);
},
{
closed = 1;
nodes = (
(261,0,l),
(261,522,ls),
(261,594,o),
(274,610,o),
(359,597,c),
(371,740,l),
(192,774,o),
(95,710,o),
(95,530,cs),
(95,0,l)
);
}
);
width = 386;
}
);
unicode = 102;
},
{
glyphname = g;
lastChange = "2021-09-11 13:55:56 +0000";
layers = (
{
layerId = "83B83716-1CD1-47ED-B715-8773FED73F88";
shapes = (
{
closed = 1;
nodes = (
(115,-196,o),
(175,-210,o),
(258,-210,cs),
(423,-210,o),
(526,-154,o),
(526,21,cs),
(526,500,l),
(360,500,l),
(360,21,ls),
(360,-41,o),
(333,-70,o),
(256,-70,cs),
(198,-70,o),
(138,-54,o),
(93,-39,c),
(71,-182,l)
);
},
{
angle = 180;
pos = (516,500);
ref = _panse;
}
);
width = 586;
},
{
associatedMasterId = "D8D2F0D2-8948-448B-99CD-378CDFD0E0AE";
layerId = "9951E362-21EF-4A12-AD06-6884072DEE0C";
name = "Sep 11 21, 15:49";
shapes = (
{
closed = 1;
nodes = (
(110,-187,o),
(181,-210,o),
(259,-210,cs),
(385,-210,o),
(462,-150,o),
(462,-15,cs),
(462,500,l),
(402,500,l),
(402,-15,ls),
(402,-125,o),
(346,-156,o),
(261,-156,cs),
(191,-156,o),
(137,-135,o),
(91,-110,c),
(71,-165,l)
);
},
{
angle = 180;
pos = (562,500);
ref = _panse;
}
);
width = 562;
},
{
layerId = "D8D2F0D2-8948-448B-99CD-378CDFD0E0AE";
shapes = (
{
closed = 1;
nodes = (
(108,-187,o),
(179,-210,o),
(257,-210,cs),
(383,-210,o),
(460,-150,o),
(460,-15,cs),
(460,488,l),
(400,490,l),
(400,-15,ls),
(400,-125,o),
(344,-156,o),
(259,-156,cs),
(189,-156,o),
(135,-135,o),
(89,-110,c),
(69,-165,l)
);
},
{
closed = 1;
nodes = (
(400,165,l),
(400,94,o),
(331,46,o),
(263,46,cs),
(196,46,o),
(122,93,o),
(122,240,cs),
(122,393,o),
(204,452,o),
(316,452,cs),
(355,452,o),
(394,445,o),
(444,434,c),
(460,488,l),
(395,500,o),
(349,504,o),
(317,504,cs),
(148,504,o),
(60,398,o),
(60,237,cs),
(60,62,o),
(160,-10,o),
(256,-10,cs),
(326,-10,o),
(386,28,o),
(424,106,c)
);
}
);
width = 560;
}
);
metricLeft = "=|p";
metricRight = "=q";
unicode = 103;
},
{
glyphname = h;
lastChange = "2021-09-12 09:01:48 +0000";
layers = (
{
layerId = "D8D2F0D2-8948-448B-99CD-378CDFD0E0AE";
shapes = (
{
closed = 1;
nodes = (
(160,0,l),
(160,740,l),
(100,740,l),
(100,0,l)
);
},
{
closed = 1;
nodes = (
(472,0,l),
(472,348,ls),
(472,453,o),
(411,508,o),
(323,510,cs),
(245,512,o),
(174,472,o),
(136,394,c),
(160,335,l),
(160,406,o),
(232,454,o),
(307,454,cs),
(375,454,o),
(412,415,o),
(412,335,cs),
(412,0,l)
);
}
);
width = 562;
},
{
layerId = "83B83716-1CD1-47ED-B715-8773FED73F88";
shapes = (
{
closed = 1;
nodes = (
(226,0,l),
(226,740,l),
(60,740,l),
(60,0,l)
);
},
{
closed = 1;
nodes = (
(526,0,l),
(526,318,ls),
(526,453,o),
(464,510,o),
(369,510,cs),
(291,510,o),
(234,472,o),
(206,394,c),
(226,289,l),
(226,338,o),
(259,366,o),
(300,366,cs),
(334,366,o),
(360,347,o),
(360,291,cs),
(360,0,l)
);
}
);
width = 576;
}
);
metricLeft = "=n";
metricRight = "=n";
unicode = 104;
},
{
glyphname = idotless;
lastChange = "2025-05-26 20:02:08 +0000";
layers = (
{
anchors = (
{
name = bottom;
pos = (130,0);
},
{
name = ogonek;
pos = (234,10);
},
{
name = top;
pos = (130,500);
}
);
layerId = "D8D2F0D2-8948-448B-99CD-378CDFD0E0AE";
shapes = (
{
closed = 1;
nodes = (
(160,0,l),
(160,500,l),
(100,500,l),
(100,0,l)
);
}
);
width = 260;
},
{
anchors = (
{
name = bottom;
pos = (143,0);
},
{
name = ogonek;
pos = (187,0);
},
{
name = top;
pos = (143,500);
}
);
layerId = "83B83716-1CD1-47ED-B715-8773FED73F88";
shapes = (
{
closed = 1;
nodes = (
(226,0,l),
(226,500,l),
(60,500,l),
(60,0,l)
);
}
);
width = 286;
}
);
metricLeft = "=n";
metricRight = "=|";
unicode = 305;
},
{
glyphname = jdotless;
lastChange = "2021-09-10 20:29:30 +0000";
layers = (
{
anchors = (
{
name = top;
pos = (130,500);
}
);
layerId = "D8D2F0D2-8948-448B-99CD-378CDFD0E0AE";
shapes = (
{
closed = 1;
nodes = (
(100,500,l),
(100,-50,ls),
(100,-132,o),
(79,-164,o),
(-24,-145,c),
(-32,-200,l),
(99,-224,o),
(160,-170,o),
(160,-60,cs),
(160,500,l)
);
}
);
width = 260;
},
{
anchors = (
{
name = top;
pos = (143,500);
}
);
layerId = "83B83716-1CD1-47ED-B715-8773FED73F88";
shapes = (
{
closed = 1;
nodes = (
(60,500,l),
(60,18,ls),
(60,-54,o),
(47,-70,o),
(-18,-57,c),
(-30,-200,l),
(129,-234,o),
(226,-170,o),
(226,10,cs),
(226,500,l)
);
}
);
width = 286;
}
);
metricRight = "=i";
unicode = 567;
},
{
glyphname = k;
lastChange = "2021-09-12 09:01:55 +0000";
layers = (
{
layerId = "D8D2F0D2-8948-448B-99CD-378CDFD0E0AE";
shapes = (
{
closed = 1;
nodes = (
(160,0,l),
(160,740,l),
(100,740,l),
(100,0,l)
);
},
{
closed = 1;
nodes = (
(456,500,l),
(380,500,l),
(117,208,l),
(160,176,l)
);
},
{
closed = 1;
nodes = (
(201,272,l),
(407,0,l),
(482,0,l),
(254,302,l)
);
}
);
width = 502;
},
{
layerId = "83B83716-1CD1-47ED-B715-8773FED73F88";
shapes = (
{
closed = 1;
nodes = (
(226,0,l),
(226,740,l),
(60,740,l),
(60,0,l)
);
},
{
closed = 1;
nodes = (
(572,500,l),
(370,500,l),
(113,208,l),
(185,96,l)
);
},
{
closed = 1;
nodes = (
(221,272,l),
(386,0,l),
(580,0,l),
(355,344,l)
);
}
);
width = 590;
}
);
metricLeft = "=l";
unicode = 107;
},
{
glyphname = l;
lastChange = "2021-09-12 12:52:22 +0000";
layers = (
{
layerId = "D8D2F0D2-8948-448B-99CD-378CDFD0E0AE";
shapes = (
{
closed = 1;
nodes = (
(160,0,l),
(160,740,l),
(100,740,l),
(100,0,l)
);
}
);
width = 260;
},
{
layerId = "83B83716-1CD1-47ED-B715-8773FED73F88";
shapes = (
{
closed = 1;
nodes = (
(226,0,l),
(226,740,l),
(60,740,l),
(60,0,l)
);
}
);
width = 286;
}
);
metricLeft = "=n";
metricRight = "=|l";
unicode = 108;
},
{
glyphname = m;
lastChange = "2021-08-17 13:36:03 +0000";
layers = (
{
layerId = "D8D2F0D2-8948-448B-99CD-378CDFD0E0AE";
shapes = (
{
closed = 1;
nodes = (
(462,0,l),
(462,348,ls),
(462,453,o),
(402,510,o),
(315,510,cs),
(244,510,o),
(174,472,o),
(136,394,c),
(160,335,l),
(160,406,o),
(230,454,o),
(302,454,cs),
(367,454,o),
(402,415,o),
(402,335,cs),
(402,0,l)
);
},
{
closed = 1;
nodes = (
(160,0,l),
(160,500,l),
(100,500,l),
(100,0,l)
);
},
{
closed = 1;
nodes = (
(764,0,l),
(764,348,ls),
(764,453,o),
(704,510,o),
(617,510,cs),
(546,510,o),
(476,472,o),
(438,394,c),
(462,335,l),
(462,406,o),
(532,454,o),
(604,454,cs),
(669,454,o),
(704,415,o),
(704,335,cs),
(704,0,l)
);
}
);
width = 854;
},
{
layerId = "83B83716-1CD1-47ED-B715-8773FED73F88";
shapes = (
{
closed = 1;
nodes = (
(520,0,l),
(520,318,ls),
(520,453,o),
(460,510,o),
(365,510,cs),
(287,510,o),
(234,472,o),
(206,394,c),
(226,289,l),
(226,338,o),
(255,366,o),
(296,366,cs),
(330,366,o),
(354,347,o),
(354,291,cs),
(354,0,l)
);
},
{
closed = 1;
nodes = (
(226,0,l),
(226,500,l),
(60,500,l),
(60,0,l)
);
},
{
closed = 1;
nodes = (
(814,0,l),
(814,318,ls),
(814,453,o),
(754,510,o),
(659,510,cs),
(581,510,o),
(510,472,o),
(478,394,c),
(520,289,l),
(520,338,o),
(549,366,o),
(590,366,cs),
(624,366,o),
(648,347,o),
(648,291,cs),
(648,0,l)
);
}
);
width = 864;
}
);
metricLeft = "=n";
metricRight = "=n";
unicode = 109;
},
{
glyphname = n;
lastChange = "2025-05-26 20:02:55 +0000";
layers = (
{
layerId = "D8D2F0D2-8948-448B-99CD-378CDFD0E0AE";
shapes = (
{
closed = 1;
nodes = (
(472,0,l),
(472,348,ls),
(472,453,o),
(411,508,o),
(323,510,cs),
(245,512,o),
(174,472,o),
(136,394,c),
(160,335,l),
(160,406,o),
(232,454,o),
(307,454,cs),
(375,454,o),
(412,415,o),
(412,335,cs),
(412,0,l)
);
},
{
closed = 1;
nodes = (
(160,0,l),
(160,500,l),
(100,500,l),
(100,0,l)
);
}
);
width = 562;
},
{
associatedMasterId = "D8D2F0D2-8948-448B-99CD-378CDFD0E0AE";
layerId = "30D0AD92-E07E-4A8A-AFE4-26D7A8370F62";
name = "Aug 11 21, 17:18";
shapes = (
{
closed = 1;
nodes = (
(472,0,l),
(472,348,ls),
(472,453,o),
(416,510,o),
(324,510,cs),
(249,510,o),
(180,472,o),
(132,394,c),
(160,374,l),
(201,428,o),
(257,454,o),
(312,454,cs),
(379,454,o),
(412,415,o),
(412,335,cs),
(412,0,l)
);
},
{
closed = 1;
nodes = (
(160,0,l),
(160,500,l),
(100,500,l),
(100,0,l)
);
}
);
width = 562;
},
{
layerId = "83B83716-1CD1-47ED-B715-8773FED73F88";
shapes = (
{
closed = 1;
nodes = (
(526,0,l),
(526,318,ls),
(526,453,o),
(464,510,o),
(369,510,cs),
(291,510,o),
(234,472,o),
(206,394,c),
(226,289,l),
(226,338,o),
(259,366,o),
(300,366,cs),
(334,366,o),
(360,347,o),
(360,291,cs),
(360,0,l)
);
},
{
closed = 1;
nodes = (
(226,0,l),
(226,500,l),
(60,500,l),
(60,0,l)
);
}
);
width = 576;
}
);
unicode = 110;
},
{
glyphname = o;
lastChange = "2021-09-11 13:55:48 +0000";
layers = (
{
layerId = "D8D2F0D2-8948-448B-99CD-378CDFD0E0AE";
shapes = (
{
closed = 1;
nodes = (
(56,87,o),
(139,-10,o),
(271,-10,cs),
(408,-10,o),
(496,95,o),
(496,256,cs),
(496,413,o),
(413,510,o),
(281,510,cs),
(144,510,o),
(56,405,o),
(56,244,cs)
);
},
{
closed = 1;
nodes = (
(118,378,o),
(179,458,o),
(279,458,cs),
(376,458,o),
(434,381,o),
(434,253,cs),
(434,122,o),
(373,42,o),
(273,42,cs),
(176,42,o),
(118,119,o),
(118,247,cs)
);
}
);
width = 552;
},
{
layerId = "83B83716-1CD1-47ED-B715-8773FED73F88";
shapes = (
{
closed = 1;
nodes = (
(26,86,o),
(111,-10,o),
(267,-10,cs),
(429,-10,o),
(524,94,o),
(524,258,cs),
(524,414,o),
(439,510,o),
(284,510,cs),
(121,510,o),
(26,406,o),
(26,241,cs)
);
},
{
closed = 1;
nodes = (
(204,324,o),
(228,368,o),
(277,368,cs),
(324,368,o),
(346,327,o),
(346,253,cs),
(346,176,o),
(322,132,o),
(273,132,cs),
(226,132,o),
(204,173,o),
(204,247,cs)
);
}
);
width = 550;
},
{
associatedMasterId = "D8D2F0D2-8948-448B-99CD-378CDFD0E0AE";
layerId = "0DCA402F-CCFE-40A6-8C45-36FD42F23271";
name = "Sep 11 21, 15:54";
shapes = (
{
closed = 1;
nodes = (
(46,83,o),
(133,-10,o),
(262,-10,cs),
(396,-10,o),
(486,92,o),
(486,257,cs),
(486,417,o),
(399,510,o),
(270,510,cs),
(136,510,o),
(46,408,o),
(46,243,cs)
);
},
{
closed = 1;
nodes = (
(108,381,o),
(172,458,o),
(269,458,cs),
(365,458,o),
(424,382,o),
(424,253,cs),
(424,119,o),
(360,42,o),
(263,42,cs),
(167,42,o),
(108,118,o),
(108,247,cs)
);
}
);
width = 532;
}
);
metricRight = "=|";
unicode = 111;
},
{
glyphname = p;
lastChange = "2025-05-26 20:02:48 +0000";
layers = (
{
layerId = "D8D2F0D2-8948-448B-99CD-378CDFD0E0AE";
shapes = (
{
closed = 1;
nodes = (
(160,-200,l),
(160,500,l),
(100,500,l),
(100,-200,l)
);
},
{
ref = _panse;
}
);
width = 570;
},
{
layerId = "83B83716-1CD1-47ED-B715-8773FED73F88";
shapes = (
{
closed = 1;
nodes = (
(226,-200,l),
(226,500,l),
(60,500,l),
(60,-200,l)
);
},
{
pos = (70,0);
ref = _panse;
}
);
width = 586;
}
);
metricLeft = "=n";
unicode = 112;
},
{
glyphname = q;
lastChange = "2021-08-25 19:51:45 +0000";
layers = (
{
layerId = "D8D2F0D2-8948-448B-99CD-378CDFD0E0AE";
shapes = (
{
closed = 1;
nodes = (
(402,500,l),
(402,-200,l),
(462,-200,l),
(462,500,l)
);
},
{
angle = 180;
pos = (562,500);
ref = _panse;
}
);
width = 562;
},
{
layerId = "83B83716-1CD1-47ED-B715-8773FED73F88";
shapes = (
{
closed = 1;
nodes = (
(360,500,l),
(360,-200,l),
(526,-200,l),
(526,500,l)
);
},
{
angle = 180;
pos = (516,500);
ref = _panse;
}
);
width = 586;
}
);
metricLeft = "=|p";
metricRight = "=|p";
unicode = 113;
},
{
glyphname = r;
lastChange = "2023-11-01 16:28:12 +0000";
layers = (
{
layerId = "D8D2F0D2-8948-448B-99CD-378CDFD0E0AE";
shapes = (
{
closed = 1;
nodes = (
(332,496,l),
(245,523,o),
(169,472,o),
(136,394,c),
(160,335,l),
(160,406,o),
(211,467,o),
(320,439,c)
);
},
{
closed = 1;
nodes = (
(160,0,l),
(160,500,l),
(100,500,l),
(100,0,l)
);
}
);
width = 350;
},
{
layerId = "83B83716-1CD1-47ED-B715-8773FED73F88";
shapes = (
{
closed = 1;
nodes = (
(380,500,l),
(292,520,o),
(234,472,o),
(206,394,c),
(226,265,l),
(226,334,o),
(290,352,o),
(371,332,c)
);
},
{
closed = 1;
nodes = (
(226,0,l),
(226,500,l),
(60,500,l),
(60,0,l)
);
}
);
width = 400;
}
);
metricLeft = "=n";
unicode = 114;
},
{
glyphname = s;
lastChange = "2025-05-26 20:02:38 +0000";
layers = (
{
guides = (
{
angle = 220.9144;
pos = (254,375);
}
);
layerId = "D8D2F0D2-8948-448B-99CD-378CDFD0E0AE";
shapes = (
{
closed = 1;
nodes = (
(79,19,o),
(143,-10,o),
(217,-10,cs),
(323,-10,o),
(386,50,o),
(386,129,cs),
(386,294,o),
(116,256,o),
(116,377,cs),
(116,419,o),
(148,460,o),
(217,460,cs),
(266,460,o),
(303,439,o),
(333,394,c),
(375,430,l),
(340,485,o),
(282,510,o),
(218,510,cs),
(118,510,o),
(58,448,o),
(58,371,cs),
(58,206,o),
(328,244,o),
(328,123,cs),
(328,78,o),
(292,40,o),
(218,40,cs),
(163,40,o),
(122,61,o),
(84,112,c),
(42,76,l)
);
}
);
width = 426;
},
{
associatedMasterId = "83B83716-1CD1-47ED-B715-8773FED73F88";
layerId = "74D0C476-99A0-4076-825E-08E16CCDD11B";
name = "Aug 19 21, 23:11";
shapes = (
{
closed = 1;
nodes = (
(62,34,o),
(133,-10,o),
(241,-10,cs),
(366,-10,o),
(450,50,o),
(450,157,cs),
(450,334,o),
(214,293,o),
(214,363,cs),
(214,379,o),
(226,390,o),
(245,390,cs),
(267,390,o),
(279,377,o),
(284,349,c),
(446,389,l),
(421,466,o),
(356,510,o),
(254,510,cs),
(133,510,o),
(48,448,o),
(48,343,cs),
(48,166,o),
(284,208,o),
(284,136,cs),
(284,120,o),
(272,111,o),
(252,111,cs),
(230,111,o),
(215,122,o),
(208,158,c),
(40,117,l)
);
}
);
width = 490;
},
{
associatedMasterId = "83B83716-1CD1-47ED-B715-8773FED73F88";
layerId = "51E8AB00-EDAB-4C80-8A7C-5A47006198B2";
name = "Aug 19 21, 23:14";
shapes = (
{
closed = 1;
nodes = (
(62,34,o),
(133,-10,o),
(246,-10,cs),
(376,-10,o),
(460,50,o),
(460,157,cs),
(460,334,o),
(214,293,o),
(214,363,cs),
(214,379,o),
(226,390,o),
(250,390,cs),
(276,390,o),
(289,377,o),
(296,349,c),
(458,389,l),
(431,466,o),
(366,510,o),
(259,510,cs),
(133,510,o),
(48,448,o),
(48,343,cs),
(48,166,o),
(294,208,o),
(294,136,cs),
(294,120,o),
(282,111,o),
(258,111,cs),
(232,111,o),
(216,122,o),
(208,154,c),
(40,113,l)
);
}
);
width = 500;
},
{
associatedMasterId = "D8D2F0D2-8948-448B-99CD-378CDFD0E0AE";
layerId = "C761C3B0-11A6-42B5-A1D5-C1338B683BD5";
name = "Aug 25 21, 16:11";
shapes = (
{
closed = 1;
nodes = (
(65,34,o),
(123,-10,o),
(215,-10,cs),
(323,-10,o),
(386,50,o),
(386,129,cs),
(386,294,o),
(116,256,o),
(116,377,cs),
(116,419,o),
(148,460,o),
(217,460,cs),
(281,460,o),
(310,425,o),
(327,373,c),
(382,392,l),
(357,466,o),
(302,510,o),
(218,510,cs),
(118,510,o),
(58,448,o),
(58,371,cs),
(58,206,o),
(328,244,o),
(328,123,cs),
(328,78,o),
(292,40,o),
(217,40,cs),
(145,40,o),
(112,75,o),
(95,127,c),
(40,108,l)
);
}
);
width = 426;
},
{
associatedMasterId = "83B83716-1CD1-47ED-B715-8773FED73F88";
layerId = "E1AD63DB-2A5F-498A-8497-3DA66CF00884";
name = "Aug 25 21, 20:17";
shapes = (
{
closed = 1;
nodes = (
(49,34,o),
(123,-10,o),
(244,-10,cs),
(385,-10,o),
(470,50,o),
(470,154,cs),
(470,334,o),
(206,301,o),
(206,367,cs),
(206,381,o),
(218,394,o),
(246,394,cs),
(278,394,o),
(294,377,o),
(301,349,c),
(469,389,l),
(441,466,o),
(371,510,o),
(257,510,cs),
(122,510,o),
(34,448,o),
(34,343,cs),
(34,166,o),
(298,194,o),
(298,131,cs),
(298,118,o),
(287,106,o),
(258,106,cs),
(226,106,o),
(208,121,o),
(200,154,c),
(26,113,l)
);
}
);
width = 494;
},
{
guides = (
{
angle = 220.9144;
pos = (469,389);
}
);
layerId = "83B83716-1CD1-47ED-B715-8773FED73F88";
shapes = (
{
closed = 1;
nodes = (
(67,23,o),
(146,-10,o),
(242,-10,cs),
(385,-10,o),
(470,60,o),
(470,164,cs),
(470,344,o),
(206,297,o),
(206,357,cs),
(206,371,o),
(221,382,o),
(252,382,cs),
(288,382,o),
(334,367,o),
(392,319,c),
(469,435,l),
(417,480,o),
(346,510,o),
(259,510,cs),
(122,510,o),
(34,438,o),
(34,333,cs),
(34,156,o),
(298,198,o),
(298,141,cs),
(298,128,o),
(284,118,o),
(253,118,cs),
(217,118,o),
(169,132,o),
(110,180,c),
(26,67,l)
);
}
);
width = 494;
}
);
unicode = 115;
},
{
glyphname = t;
lastChange = "2021-08-25 19:40:43 +0000";
layers = (
{
layerId = "D8D2F0D2-8948-448B-99CD-378CDFD0E0AE";
shapes = (
{
closed = 1;
nodes = (
(40,446,l),
(320,446,l),
(320,500,l),
(40,500,l)
);
},
{
closed = 1;
nodes = (
(130,140,ls),
(130,30,o),
(181,-24,o),
(322,0,c),
(314,55,l),
(211,36,o),
(190,68,o),
(190,150,cs),
(190,686,l),
(130,676,l)
);
}
);
width = 352;
},
{
layerId = "83B83716-1CD1-47ED-B715-8773FED73F88";
shapes = (
{
closed = 1;
nodes = (
(25,350,l),
(361,350,l),
(361,500,l),
(25,500,l)
);
},
{
closed = 1;
nodes = (
(95,190,ls),
(95,30,o),
(182,-34,o),
(371,0,c),
(359,147,l),
(274,134,o),
(261,150,o),
(261,222,cs),
(261,680,l),
(95,650,l)
);
}
);
width = 386;
}
);
metricLeft = "=f";
unicode = 116;
},
{
glyphname = u;
lastChange = "2021-08-13 17:20:03 +0000";
layers = (
{
layerId = "D8D2F0D2-8948-448B-99CD-378CDFD0E0AE";
shapes = (
{
closed = 1;
nodes = (
(90,500,l),
(90,152,ls),
(90,47,o),
(147,-8,o),
(235,-10,cs),
(313,-12,o),
(382,28,o),
(420,106,c),
(396,165,l),
(396,94,o),
(325,46,o),
(252,46,cs),
(186,46,o),
(150,85,o),
(150,165,cs),
(150,500,l)
);
},
{
closed = 1;
nodes = (
(396,500,l),
(396,0,l),
(456,0,l),
(456,500,l)
);
}
);
width = 556;
},
{
layerId = "83B83716-1CD1-47ED-B715-8773FED73F88";
shapes = (
{
closed = 1;
nodes = (
(50,500,l),
(50,182,ls),
(50,47,o),
(110,-10,o),
(205,-10,cs),
(283,-10,o),
(336,28,o),
(364,106,c),
(344,211,l),
(344,162,o),
(315,134,o),
(274,134,cs),
(240,134,o),
(216,153,o),
(216,209,cs),
(216,500,l)
);
},
{
closed = 1;
nodes = (
(344,500,l),
(344,0,l),
(510,0,l),
(510,500,l)
);
}
);
width = 570;
}
);
metricLeft = "=|n";
metricRight = "=|n";
unicode = 117;
},
{
glyphname = v;
lastChange = "2025-05-26 20:02:01 +0000";
layers = (
{
layerId = "D8D2F0D2-8948-448B-99CD-378CDFD0E0AE";
shapes = (
{
closed = 1;
nodes = (
(276,0,l),
(95,500,l),
(30,500,l),
(220,0,l)
);
},
{
closed = 1;
nodes = (
(470,500,l),
(405,500,l),
(224,0,l),
(280,0,l)
);
}
);
width = 500;
},
{
layerId = "83B83716-1CD1-47ED-B715-8773FED73F88";
shapes = (
{
closed = 1;
nodes = (
(326,0,l),
(194,500,l),
(10,500,l),
(180,0,l)
);
},
{
closed = 1;
nodes = (
(544,500,l),
(360,500,l),
(228,0,l),
(374,0,l)
);
}
);
width = 554;
}
);
metricRight = "=|";
unicode = 118;
},
{
glyphname = w;
lastChange = "2021-08-25 10:46:24 +0000";
layers = (
{
layerId = "D8D2F0D2-8948-448B-99CD-378CDFD0E0AE";
shapes = (
{
closed = 1;
nodes = (
(261,0,l),
(100,500,l),
(35,500,l),
(205,0,l)
);
},
{
closed = 1;
nodes = (
(433,500,l),
(371,500,l),
(209,0,l),
(265,0,l)
);
},
{
closed = 1;
nodes = (
(597,0,l),
(435,500,l),
(373,500,l),
(541,0,l)
);
},
{
closed = 1;
nodes = (
(771,500,l),
(706,500,l),
(545,0,l),
(601,0,l)
);
}
);
width = 806;
},
{
layerId = "83B83716-1CD1-47ED-B715-8773FED73F88";
shapes = (
{
closed = 1;
nodes = (
(319,0,l),
(209,500,l),
(25,500,l),
(181,0,l)
);
},
{
closed = 1;
nodes = (
(524,500,l),
(367,500,l),
(237,0,l),
(373,0,l)
);
},
{
closed = 1;
nodes = (
(663,0,l),
(533,500,l),
(376,500,l),
(527,0,l)
);
},
{
closed = 1;
nodes = (
(875,500,l),
(691,500,l),
(581,0,l),
(719,0,l)
);
}
);
width = 900;
},
{
associatedMasterId = "83B83716-1CD1-47ED-B715-8773FED73F88";
layerId = "4D1645BF-BEDF-4181-8641-6FB18604B64F";
name = "Aug 25 21, 12:44";
shapes = (
{
closed = 1;
nodes = (
(264,0,l),
(214,500,l),
(30,500,l),
(126,0,l)
);
},
{
closed = 1;
nodes = (
(449,250,l),
(395,450,l),
(162,0,l),
(318,0,l)
);
},
{
closed = 1;
nodes = (
(628,0,l),
(395,450,l),
(341,250,l),
(472,0,l)
);
},
{
closed = 1;
nodes = (
(760,500,l),
(576,500,l),
(526,0,l),
(664,0,l)
);
}
);
width = 790;
}
);
metricRight = "=|";
unicode = 119;
},
{
glyphname = x;
lastChange = "2021-08-14 12:46:38 +0000";
layers = (
{
layerId = "D8D2F0D2-8948-448B-99CD-378CDFD0E0AE";
shapes = (
{
closed = 1;
nodes = (
(202,248,l),
(40,0,l),
(107,0,l),
(260,234,l),
(210,234,l),
(363,0,l),
(430,0,l),
(269,248,l),
(433,500,l),
(366,500,l),
(210,261,l),
(260,261,l),
(104,500,l),
(37,500,l)
);
}
);
width = 470;
},
{
layerId = "83B83716-1CD1-47ED-B715-8773FED73F88";
shapes = (
{
closed = 1;
nodes = (
(161,248,l),
(13,0,l),
(199,0,l),
(288,155,l),
(258,155,l),
(347,0,l),
(533,0,l),
(386,248,l),
(536,500,l),
(350,500,l),
(258,341,l),
(288,341,l),
(196,500,l),
(10,500,l)
);
}
);
width = 546;
}
);
metricRight = "=|";
unicode = 120;
},
{
glyphname = y;
lastChange = "2021-09-11 14:02:11 +0000";
layers = (
{
layerId = "D8D2F0D2-8948-448B-99CD-378CDFD0E0AE";
shapes = (
{
closed = 1;
nodes = (
(168,-224,o),
(214,-174,o),
(280,0,cs),
(470,500,l),
(220,0,l),
(165,-135,o),
(144,-165,o),
(38,-145,c),
(30,-200,l)
);
},
{
ref = v;
}
);
width = 500;
},
{
layerId = "83B83716-1CD1-47ED-B715-8773FED73F88";
shapes = (
{
closed = 1;
nodes = (
(260,-194,o),
(337,-138,o),
(384,0,cs),
(554,500,l),
(190,0,l),
(183,-27,o),
(154,-50,o),
(84,-52,c),
(104,-200,l)
);
},
{
ref = v;
}
);
width = 574;
},
{
associatedMasterId = "D8D2F0D2-8948-448B-99CD-378CDFD0E0AE";
layerId = "5109EBFC-8F97-4C9D-8677-8E6010CF961D";
name = "Sep 11 21, 15:58";
shapes = (
{
closed = 1;
nodes = (
(156,-190,o),
(225,-145,o),
(280,0,cs),
(470,500,l),
(220,0,l),
(187,-81,o),
(145,-140,o),
(30,-146,c),
(40,-200,l)
);
},
{
ref = v;
}
);
width = 500;
}
);
metricLeft = "=v";
metricRight = "=v";
unicode = 121;
},
{
glyphname = z;
lastChange = "2021-08-14 16:13:17 +0000";
layers = (
{
layerId = "D8D2F0D2-8948-448B-99CD-378CDFD0E0AE";
shapes = (
{
closed = 1;
nodes = (
(60,446,l),
(380,446,l),
(420,466,l),
(420,500,l),
(60,500,l)
);
},
{
closed = 1;
nodes = (
(60,0,l),
(420,0,l),
(420,54,l),
(97,54,l),
(60,34,l)
);
},
{
closed = 1;
nodes = (
(127,34,l),
(420,466,l),
(353,466,l),
(60,34,l)
);
}
);
width = 480;
},
{
layerId = "83B83716-1CD1-47ED-B715-8773FED73F88";
shapes = (
{
closed = 1;
nodes = (
(60,350,l),
(404,350,l),
(464,376,l),
(464,500,l),
(60,500,l)
);
},
{
closed = 1;
nodes = (
(60,0,l),
(464,0,l),
(464,150,l),
(117,150,l),
(60,124,l)
);
},
{
closed = 1;
nodes = (
(258,114,l),
(464,376,l),
(266,386,l),
(60,124,l)
);
}
);
width = 524;
}
);
unicode = 122;
},
{
glyphname = zero;
lastChange = "2021-09-10 20:39:31 +0000";
layers = (
{
layerId = "D8D2F0D2-8948-448B-99CD-378CDFD0E0AE";
shapes = (
{
closed = 1;
nodes = (
(44,130,o),
(145,-10,o),
(299,-10,cs),
(455,-10,o),
(556,140,o),
(556,405,cs),
(556,654,o),
(461,790,o),
(311,790,cs),
(152,790,o),
(44,635,o),
(44,375,cs)
);
},
{
closed = 1;
nodes = (
(110,605,o),
(189,730,o),
(307,730,cs),
(418,730,o),
(490,617,o),
(490,399,cs),
(490,169,o),
(418,50,o),
(303,50,cs),
(188,50,o),
(110,168,o),
(110,381,cs)
);
}
);
width = 600;
},
{
layerId = "83B83716-1CD1-47ED-B715-8773FED73F88";
width = 600;
}
);
unicode = 48;
},
{
glyphname = one;
lastChange = "2021-09-10 22:02:41 +0000";
layers = (
{
layerId = "D8D2F0D2-8948-448B-99CD-378CDFD0E0AE";
shapes = (
{
closed = 1;
nodes = (
(280,780,l),
(280,0,l),
(346,0,l),
(346,780,l)
);
},
{
closed = 1;
nodes = (
(97,614,l),
(201,646,o),
(260,666,o),
(295,722,c),
(280,780,l),
(235,724,o),
(182,699,o),
(80,671,c)
);
}
);
width = 600;
},
{
layerId = "83B83716-1CD1-47ED-B715-8773FED73F88";
width = 600;
}
);
unicode = 49;
},
{
glyphname = two;
lastChange = "2021-09-11 13:41:09 +0000";
layers = (
{
layerId = "D8D2F0D2-8948-448B-99CD-378CDFD0E0AE";
shapes = (
{
closed = 1;
nodes = (
(328,732,l),
(426,732,o),
(479,664,o),
(479,578,cs),
(479,342,o),
(64,437,o),
(64,0,c),
(126,0,l),
(125,408,o),
(543,295,o),
(543,578,cs),
(543,701,o),
(463,790,o),
(331,790,c)
);
},
{
closed = 1;
nodes = (
(94,0,l),
(556,0,l),
(556,60,l),
(94,60,l)
);
},
{
closed = 1;
nodes = (
(217,790,o),
(126,724,o),
(76,643,c),
(127,607,l),
(174,682,o),
(243,732,o),
(328,732,c),
(331,790,l)
);
}
);
width = 600;
},
{
layerId = "83B83716-1CD1-47ED-B715-8773FED73F88";
width = 600;
},
{
associatedMasterId = "D8D2F0D2-8948-448B-99CD-378CDFD0E0AE";
layerId = "24E6C80F-32C1-47B8-AF2C-0071E576D8FD";
name = "Sep 10 21, 23:45";
shapes = (
{
closed = 1;
nodes = (
(172,678,o),
(243,730,o),
(329,730,cs),
(426,730,o),
(481,664,o),
(481,574,cs),
(481,334,o),
(64,387,o),
(64,0,c),
(125,0,l),
(124,357,o),
(543,287,o),
(543,574,cs),
(543,700,o),
(463,790,o),
(331,790,cs),
(217,790,o),
(126,724,o),
(76,613,c),
(133,588,l)
);
},
{
closed = 1;
nodes = (
(94,0,l),
(556,0,l),
(556,60,l),
(94,60,l)
);
}
);
width = 600;
}
);
unicode = 50;
},
{
glyphname = three;
lastChange = "2021-09-12 10:30:24 +0000";
layers = (
{
layerId = "D8D2F0D2-8948-448B-99CD-378CDFD0E0AE";
shapes = (
{
closed = 1;
nodes = (
(414,390,o),
(539,443,o),
(539,585,cs),
(539,700,o),
(457,790,o),
(325,790,cs),
(211,790,o),
(120,724,o),
(70,643,c),
(121,607,l),
(168,682,o),
(237,732,o),
(322,732,cs),
(420,732,o),
(475,664,o),
(475,580,cs),
(475,467,o),
(376,434,o),
(255,434,c),
(255,390,l)
);
},
{
closed = 1;
nodes = (
(484,115,o),
(417,48,o),
(296,48,cs),
(215,48,o),
(157,79,o),
(103,163,c),
(48,122,l),
(102,31,o),
(190,-10,o),
(293,-10,cs),
(436,-10,o),
(548,67,o),
(548,208,cs),
(548,396,o),
(357,425,o),
(255,425,c),
(255,376,l),
(382,376,o),
(484,324,o),
(484,207,cs)
);
},
{
closed = 1;
nodes = (
(185,376,l),
(255,376,l),
(255,434,l),
(185,434,l)
);
}
);
width = 600;
},
{
layerId = "83B83716-1CD1-47ED-B715-8773FED73F88";
width = 600;
}
);
unicode = 51;
},
{
glyphname = four;
lastChange = "2021-09-10 22:08:41 +0000";
layers = (
{
layerId = "D8D2F0D2-8948-448B-99CD-378CDFD0E0AE";
shapes = (
{
closed = 1;
nodes = (
(394,0,l),
(460,0,l),
(460,780,l),
(394,780,l)
);
},
{
closed = 1;
nodes = (
(12,224,l),
(574,224,l),
(574,284,l),
(12,284,l)
);
},
{
closed = 1;
nodes = (
(12,284,l),
(81,284,l),
(456,780,l),
(386,780,l)
);
}
);
width = 600;
},
{
layerId = "83B83716-1CD1-47ED-B715-8773FED73F88";
width = 600;
}
);
unicode = 52;
},
{
glyphname = five;
lastChange = "2021-09-11 13:42:44 +0000";
layers = (
{
layerId = "D8D2F0D2-8948-448B-99CD-378CDFD0E0AE";
shapes = (
{
closed = 1;
nodes = (
(495,115,o),
(417,48,o),
(296,48,cs),
(215,48,o),
(157,79,o),
(103,163,c),
(48,122,l),
(102,31,o),
(190,-10,o),
(293,-10,cs),
(436,-10,o),
(557,67,o),
(557,237,cs),
(557,392,o),
(456,522,o),
(159,468,c),
(105,403,l),
(423,466,o),
(495,352,o),
(495,235,cs)
);
},
{
closed = 1;
nodes = (
(145,720,l),
(531,720,l),
(531,780,l),
(145,780,l)
);
},
{
closed = 1;
nodes = (
(105,403,l),
(166,446,l),
(201,780,l),
(145,780,l)
);
}
);
width = 600;
},
{
layerId = "83B83716-1CD1-47ED-B715-8773FED73F88";
width = 600;
}
);
unicode = 53;
},
{
glyphname = six;
lastChange = "2021-09-11 13:21:59 +0000";
layers = (
{
layerId = "D8D2F0D2-8948-448B-99CD-378CDFD0E0AE";
shapes = (
{
closed = 1;
nodes = (
(496,108,o),
(406,50,o),
(316,50,cs),
(188,50,o),
(104,167,o),
(106,387,cs),
(108,595,o),
(184,730,o),
(324,730,cs),
(407,730,o),
(471,682,o),
(497,591,c),
(560,612,l),
(516,736,o),
(430,790,o),
(327,790,cs),
(149,790,o),
(44,625,o),
(44,375,cs),
(44,131,o),
(146,-10,o),
(313,-10,cs),
(432,-10,o),
(558,62,o),
(558,235,cs),
(558,373,o),
(479,478,o),
(323,478,cs),
(241,478,o),
(169,449,o),
(89,402,c),
(92,342,l),
(167,389,o),
(242,418,o),
(314,418,cs),
(427,418,o),
(496,346,o),
(496,234,cs)
);
}
);
width = 600;
},
{
layerId = "83B83716-1CD1-47ED-B715-8773FED73F88";
width = 600;
},
{
associatedMasterId = "D8D2F0D2-8948-448B-99CD-378CDFD0E0AE";
layerId = "D28698A3-FBA8-4D76-95A0-9273F026368D";
name = "Sep 11 21, 15:19";
shapes = (
{
closed = 1;
nodes = (
(496,108,o),
(406,50,o),
(316,50,cs),
(188,50,o),
(106,167,o),
(108,387,cs),
(110,595,o),
(184,730,o),
(324,730,cs),
(407,730,o),
(471,682,o),
(497,591,c),
(560,612,l),
(516,736,o),
(430,790,o),
(327,790,cs),
(149,790,o),
(44,625,o),
(44,375,cs),
(44,131,o),
(146,-10,o),
(313,-10,cs),
(432,-10,o),
(560,62,o),
(560,235,cs),
(560,373,o),
(479,468,o),
(326,468,cs),
(241,468,o),
(169,439,o),
(89,386,c),
(92,322,l),
(167,379,o),
(243,406,o),
(317,406,cs),
(427,406,o),
(496,346,o),
(496,234,cs)
);
}
);
width = 600;
}
);
unicode = 54;
},
{
glyphname = seven;
lastChange = "2021-09-10 22:08:06 +0000";
layers = (
{
layerId = "D8D2F0D2-8948-448B-99CD-378CDFD0E0AE";
shapes = (
{
closed = 1;
nodes = (
(201,0,l),
(270,0,l),
(564,720,l),
(495,720,l)
);
},
{
closed = 1;
nodes = (
(52,720,l),
(564,720,l),
(564,780,l),
(52,780,l)
);
}
);
width = 600;
},
{
layerId = "83B83716-1CD1-47ED-B715-8773FED73F88";
width = 600;
}
);
unicode = 55;
},
{
glyphname = dotaccentcomb;
lastChange = "2025-05-26 20:00:12 +0000";
layers = (
{
anchors = (
{
name = _top;
pos = (130,500);
},
{
name = top;
pos = (130,740);
}
);
layerId = "D8D2F0D2-8948-448B-99CD-378CDFD0E0AE";
shapes = (
{
closed = 1;
nodes = (
(160,650,l),
(160,740,l),
(100,740,l),
(100,650,l)
);
}
);
width = 260;
},
{
anchors = (
{
name = _top;
pos = (142,500);
},
{
name = top;
pos = (142,780);
}
);
layerId = "83B83716-1CD1-47ED-B715-8773FED73F88";
shapes = (
{
closed = 1;
nodes = (
(225,574,l),
(225,740,l),
(59,740,l),
(59,574,l)
);
}
);
width = 284;
}
);
unicode = 775;
},
{
export = 0;
glyphname = _panse;
lastChange = "2021-08-25 19:50:27 +0000";
layers = (
{
layerId = "D8D2F0D2-8948-448B-99CD-378CDFD0E0AE";
shapes = (
{
closed = 1;
nodes = (
(160,335,l),
(160,406,o),
(229,454,o),
(301,454,cs),
(372,454,o),
(448,407,o),
(448,252,cs),
(448,107,o),
(382,44,o),
(299,44,cs),
(218,44,o),
(160,104,o),
(160,175,c),
(144,92,l),
(166,27,o),
(220,-10,o),
(299,-10,cs),
(436,-10,o),
(510,102,o),
(510,255,cs),
(510,438,o),
(408,510,o),
(308,510,cs),
(235,510,o),
(174,472,o),
(136,394,c)
);
}
